<mxfile host="app.diagrams.net" modified="2024-02-17T16:09:34.304Z" agent="Mozilla/5.0 (Windows NT 10.0; Win64; x64) AppleWebKit/537.36 (KHTML, like Gecko) Chrome/120.0.0.0 YaBrowser/24.1.0.0 Safari/537.36" etag="0WumtCkOxO2XJe3CgdVt" version="23.1.5" type="device">
  <diagram id="R2lEEEUBdFMjLlhIrx00" name="Page-1">
    <mxGraphModel dx="1002" dy="575" grid="1" gridSize="10" guides="1" tooltips="1" connect="1" arrows="1" fold="1" page="1" pageScale="1" pageWidth="850" pageHeight="1100" math="0" shadow="0" extFonts="Permanent Marker^https://fonts.googleapis.com/css?family=Permanent+Marker">
      <root>
        <mxCell id="0" />
        <mxCell id="1" parent="0" />
        <mxCell id="nWgdCa_OSJq7tMi1Lqan-3" value="" style="endArrow=classic;html=1;rounded=0;fillColor=#f8cecc;strokeColor=#b85450;" parent="1" edge="1">
          <mxGeometry width="50" height="50" relative="1" as="geometry">
            <mxPoint x="50" y="610" as="sourcePoint" />
            <mxPoint x="260" y="610" as="targetPoint" />
          </mxGeometry>
        </mxCell>
        <mxCell id="nWgdCa_OSJq7tMi1Lqan-5" value="Идея" style="text;html=1;strokeColor=none;fillColor=none;align=center;verticalAlign=middle;whiteSpace=wrap;rounded=0;" parent="1" vertex="1">
          <mxGeometry x="40" y="580" width="60" height="30" as="geometry" />
        </mxCell>
        <mxCell id="nWgdCa_OSJq7tMi1Lqan-6" value="" style="endArrow=classic;html=1;rounded=0;fillColor=#d5e8d4;strokeColor=#82b366;" parent="1" edge="1">
          <mxGeometry width="50" height="50" relative="1" as="geometry">
            <mxPoint x="50" y="580" as="sourcePoint" />
            <mxPoint x="260" y="580" as="targetPoint" />
          </mxGeometry>
        </mxCell>
        <mxCell id="nWgdCa_OSJq7tMi1Lqan-7" value="Материалы" style="text;html=1;strokeColor=none;fillColor=none;align=left;verticalAlign=middle;whiteSpace=wrap;rounded=0;" parent="1" vertex="1">
          <mxGeometry x="55" y="550" width="70" height="30" as="geometry" />
        </mxCell>
        <mxCell id="nWgdCa_OSJq7tMi1Lqan-8" value="" style="endArrow=classic;html=1;rounded=0;fillColor=#d5e8d4;strokeColor=#82b366;" parent="1" edge="1">
          <mxGeometry width="50" height="50" relative="1" as="geometry">
            <mxPoint x="50" y="550" as="sourcePoint" />
            <mxPoint x="260" y="550" as="targetPoint" />
          </mxGeometry>
        </mxCell>
        <mxCell id="nWgdCa_OSJq7tMi1Lqan-9" value="Финансовые ресурсы" style="text;html=1;align=left;verticalAlign=middle;whiteSpace=wrap;rounded=0;" parent="1" vertex="1">
          <mxGeometry x="55" y="520" width="130" height="30" as="geometry" />
        </mxCell>
        <mxCell id="nWgdCa_OSJq7tMi1Lqan-1" value="&lt;b&gt;&lt;font style=&quot;font-size: 23px;&quot;&gt;Создание бренда одежды&lt;/font&gt;&lt;/b&gt;" style="rounded=0;whiteSpace=wrap;html=1;fillColor=#dae8fc;strokeColor=#6c8ebf;" parent="1" vertex="1">
          <mxGeometry x="260" y="490" width="300" height="150" as="geometry" />
        </mxCell>
        <mxCell id="nWgdCa_OSJq7tMi1Lqan-16" value="" style="endArrow=classic;html=1;rounded=0;fillColor=#d5e8d4;strokeColor=#82b366;" parent="1" edge="1">
          <mxGeometry width="50" height="50" relative="1" as="geometry">
            <mxPoint x="560" y="540" as="sourcePoint" />
            <mxPoint x="770" y="540" as="targetPoint" />
          </mxGeometry>
        </mxCell>
        <mxCell id="nWgdCa_OSJq7tMi1Lqan-17" value="Бренд одежды" style="text;html=1;strokeColor=none;fillColor=none;align=center;verticalAlign=middle;whiteSpace=wrap;rounded=0;" parent="1" vertex="1">
          <mxGeometry x="600" y="510" width="90" height="30" as="geometry" />
        </mxCell>
        <mxCell id="nWgdCa_OSJq7tMi1Lqan-18" value="" style="endArrow=classic;html=1;rounded=0;fillColor=#f8cecc;strokeColor=#b85450;" parent="1" edge="1">
          <mxGeometry width="50" height="50" relative="1" as="geometry">
            <mxPoint x="50" y="520" as="sourcePoint" />
            <mxPoint x="260" y="520" as="targetPoint" />
          </mxGeometry>
        </mxCell>
        <mxCell id="nWgdCa_OSJq7tMi1Lqan-19" value="Анализ современных тенденций" style="text;html=1;strokeColor=none;fillColor=none;align=left;verticalAlign=middle;whiteSpace=wrap;rounded=0;" parent="1" vertex="1">
          <mxGeometry x="55" y="490" width="185" height="30" as="geometry" />
        </mxCell>
        <mxCell id="nWgdCa_OSJq7tMi1Lqan-21" value="" style="endArrow=classic;html=1;rounded=0;fillColor=#fff2cc;strokeColor=#d6b656;" parent="1" edge="1">
          <mxGeometry width="50" height="50" relative="1" as="geometry">
            <mxPoint x="560" y="590" as="sourcePoint" />
            <mxPoint x="770" y="590" as="targetPoint" />
          </mxGeometry>
        </mxCell>
        <mxCell id="nWgdCa_OSJq7tMi1Lqan-22" value="Удовлетворённые клиенты" style="text;html=1;strokeColor=none;fillColor=none;align=center;verticalAlign=middle;whiteSpace=wrap;rounded=0;" parent="1" vertex="1">
          <mxGeometry x="600" y="560" width="160" height="30" as="geometry" />
        </mxCell>
        <mxCell id="nWgdCa_OSJq7tMi1Lqan-28" value="" style="endArrow=classic;html=1;rounded=0;fillColor=#f8cecc;strokeColor=#b85450;" parent="1" edge="1">
          <mxGeometry width="50" height="50" relative="1" as="geometry">
            <mxPoint x="380" y="340" as="sourcePoint" />
            <mxPoint x="380" y="490" as="targetPoint" />
          </mxGeometry>
        </mxCell>
        <mxCell id="nWgdCa_OSJq7tMi1Lqan-30" value="" style="endArrow=classic;html=1;rounded=0;entryX=0.315;entryY=-0.004;entryDx=0;entryDy=0;entryPerimeter=0;fillColor=#fff2cc;strokeColor=#d6b656;" parent="1" edge="1">
          <mxGeometry width="50" height="50" relative="1" as="geometry">
            <mxPoint x="360" y="790" as="sourcePoint" />
            <mxPoint x="360" y="640" as="targetPoint" />
          </mxGeometry>
        </mxCell>
        <mxCell id="nWgdCa_OSJq7tMi1Lqan-31" value="Дизайнер" style="text;html=1;strokeColor=none;fillColor=none;align=center;verticalAlign=middle;whiteSpace=wrap;rounded=0;" parent="1" vertex="1">
          <mxGeometry x="330" y="800" width="40" height="20" as="geometry" />
        </mxCell>
        <mxCell id="nWgdCa_OSJq7tMi1Lqan-32" value="" style="endArrow=classic;html=1;rounded=0;fillColor=#fff2cc;strokeColor=#d6b656;" parent="1" edge="1">
          <mxGeometry width="50" height="50" relative="1" as="geometry">
            <mxPoint x="410" y="790" as="sourcePoint" />
            <mxPoint x="410" y="640" as="targetPoint" />
            <Array as="points">
              <mxPoint x="410" y="660" />
            </Array>
          </mxGeometry>
        </mxCell>
        <mxCell id="nWgdCa_OSJq7tMi1Lqan-33" value="Портной" style="text;html=1;strokeColor=none;fillColor=none;align=center;verticalAlign=middle;whiteSpace=wrap;rounded=0;" parent="1" vertex="1">
          <mxGeometry x="380" y="795" width="60" height="30" as="geometry" />
        </mxCell>
        <mxCell id="nWgdCa_OSJq7tMi1Lqan-34" value="" style="endArrow=classic;html=1;rounded=0;fillColor=#fff2cc;strokeColor=#d6b656;" parent="1" edge="1">
          <mxGeometry width="50" height="50" relative="1" as="geometry">
            <mxPoint x="460" y="790" as="sourcePoint" />
            <mxPoint x="460" y="640" as="targetPoint" />
            <Array as="points">
              <mxPoint x="460" y="710" />
            </Array>
          </mxGeometry>
        </mxCell>
        <mxCell id="nWgdCa_OSJq7tMi1Lqan-35" value="Менеджер по продажам&amp;nbsp;" style="text;html=1;strokeColor=none;fillColor=none;align=center;verticalAlign=middle;whiteSpace=wrap;rounded=0;" parent="1" vertex="1">
          <mxGeometry x="440" y="800" width="50" height="25" as="geometry" />
        </mxCell>
        <mxCell id="nWgdCa_OSJq7tMi1Lqan-39" value="" style="endArrow=classic;html=1;rounded=1;curved=0;fillColor=#fff2cc;strokeColor=#d6b656;" parent="1" edge="1">
          <mxGeometry width="50" height="50" relative="1" as="geometry">
            <mxPoint x="540" y="780" as="sourcePoint" />
            <mxPoint x="510" y="640" as="targetPoint" />
            <Array as="points">
              <mxPoint x="510" y="780" />
            </Array>
          </mxGeometry>
        </mxCell>
        <mxCell id="nWgdCa_OSJq7tMi1Lqan-40" value="Маркетолог" style="text;html=1;strokeColor=none;fillColor=none;align=left;verticalAlign=middle;whiteSpace=wrap;rounded=0;" parent="1" vertex="1">
          <mxGeometry x="520" y="750" width="50" height="25" as="geometry" />
        </mxCell>
        <mxCell id="nWgdCa_OSJq7tMi1Lqan-41" value="" style="endArrow=classic;html=1;rounded=1;curved=0;fillColor=#fff2cc;strokeColor=#d6b656;" parent="1" edge="1">
          <mxGeometry width="50" height="50" relative="1" as="geometry">
            <mxPoint x="280" y="780" as="sourcePoint" />
            <mxPoint x="310" y="640" as="targetPoint" />
            <Array as="points">
              <mxPoint x="310" y="780" />
            </Array>
          </mxGeometry>
        </mxCell>
        <mxCell id="nWgdCa_OSJq7tMi1Lqan-42" value="Бухгалтер" style="text;html=1;strokeColor=none;fillColor=none;align=center;verticalAlign=middle;whiteSpace=wrap;rounded=0;" parent="1" vertex="1">
          <mxGeometry x="240" y="752.5" width="60" height="20" as="geometry" />
        </mxCell>
        <mxCell id="nWgdCa_OSJq7tMi1Lqan-43" value="ГОСТы" style="text;html=1;strokeColor=none;fillColor=none;align=center;verticalAlign=middle;whiteSpace=wrap;rounded=0;" parent="1" vertex="1">
          <mxGeometry x="350" y="310" width="60" height="30" as="geometry" />
        </mxCell>
        <mxCell id="nWgdCa_OSJq7tMi1Lqan-44" value="" style="endArrow=classic;html=1;rounded=0;entryX=0.452;entryY=0.012;entryDx=0;entryDy=0;entryPerimeter=0;fillColor=#f8cecc;strokeColor=#b85450;" parent="1" edge="1">
          <mxGeometry width="50" height="50" relative="1" as="geometry">
            <mxPoint x="439.71" y="340" as="sourcePoint" />
            <mxPoint x="439.8300000000001" y="491.99999999999994" as="targetPoint" />
          </mxGeometry>
        </mxCell>
        <mxCell id="nWgdCa_OSJq7tMi1Lqan-45" value="Организационно- правовые формы&amp;nbsp;" style="text;html=1;strokeColor=none;fillColor=none;align=center;verticalAlign=middle;whiteSpace=wrap;rounded=0;" parent="1" vertex="1">
          <mxGeometry x="400" y="290" width="100" height="40" as="geometry" />
        </mxCell>
        <mxCell id="nWgdCa_OSJq7tMi1Lqan-48" value="" style="endArrow=classic;html=1;rounded=1;curved=0;fillColor=#fff2cc;strokeColor=#d6b656;" parent="1" edge="1">
          <mxGeometry width="50" height="50" relative="1" as="geometry">
            <mxPoint x="290" y="350" as="sourcePoint" />
            <mxPoint x="320.5" y="490" as="targetPoint" />
            <Array as="points">
              <mxPoint x="320.5" y="350" />
            </Array>
          </mxGeometry>
        </mxCell>
        <mxCell id="nWgdCa_OSJq7tMi1Lqan-50" value="Целевая аудиторя" style="text;html=1;strokeColor=none;fillColor=none;align=center;verticalAlign=middle;whiteSpace=wrap;rounded=0;" parent="1" vertex="1">
          <mxGeometry x="260" y="310" width="60" height="30" as="geometry" />
        </mxCell>
        <mxCell id="nWgdCa_OSJq7tMi1Lqan-54" value="" style="endArrow=classic;html=1;rounded=1;entryX=0.868;entryY=-0.007;entryDx=0;entryDy=0;entryPerimeter=0;curved=0;fillColor=#f8cecc;strokeColor=#b85450;" parent="1" edge="1">
          <mxGeometry width="50" height="50" relative="1" as="geometry">
            <mxPoint x="530" y="350" as="sourcePoint" />
            <mxPoint x="501.2600000000001" y="489.99999999999994" as="targetPoint" />
            <Array as="points">
              <mxPoint x="500" y="350" />
              <mxPoint x="500" y="410" />
            </Array>
          </mxGeometry>
        </mxCell>
        <mxCell id="nWgdCa_OSJq7tMi1Lqan-55" value="Мода" style="text;html=1;strokeColor=none;fillColor=none;align=center;verticalAlign=middle;whiteSpace=wrap;rounded=0;" parent="1" vertex="1">
          <mxGeometry x="490" y="320" width="60" height="30" as="geometry" />
        </mxCell>
        <mxCell id="KFrMSVpAkXBQNOpXP_fS-5" value="&lt;h1&gt;&lt;font style=&quot;font-size: 18px;&quot;&gt;Человеческие ресурсы&lt;/font&gt;&lt;/h1&gt;&lt;div&gt;Те, для кого создается продукт, или те, кто участвует в создании&lt;/div&gt;" style="text;html=1;spacing=5;spacingTop=-20;whiteSpace=wrap;overflow=hidden;rounded=0;fillColor=#fff2cc;strokeColor=#d6b656;" vertex="1" parent="1">
          <mxGeometry x="20" y="280" width="190" height="140" as="geometry" />
        </mxCell>
        <mxCell id="KFrMSVpAkXBQNOpXP_fS-6" value="&lt;h1&gt;&lt;font style=&quot;font-size: 18px;&quot;&gt;Информационные ресурсы&lt;/font&gt;&lt;/h1&gt;&lt;div&gt;Информация, необходимая для создания продукта, или получаемая из процесса создания&lt;/div&gt;" style="text;html=1;spacing=5;spacingTop=-20;whiteSpace=wrap;overflow=hidden;rounded=0;fillColor=#f8cecc;strokeColor=#b85450;" vertex="1" parent="1">
          <mxGeometry x="610" y="280" width="190" height="140" as="geometry" />
        </mxCell>
        <mxCell id="KFrMSVpAkXBQNOpXP_fS-7" value="&lt;h1&gt;&lt;font style=&quot;font-size: 18px;&quot;&gt;Материальные ресурсы&lt;/font&gt;&lt;/h1&gt;&lt;div&gt;Материалы, необходимые для создания проекта, или полученный продукт&lt;/div&gt;" style="text;html=1;spacing=5;spacingTop=-20;whiteSpace=wrap;overflow=hidden;rounded=0;fillColor=#d5e8d4;strokeColor=#82b366;" vertex="1" parent="1">
          <mxGeometry x="20" y="660" width="190" height="140" as="geometry" />
        </mxCell>
        <mxCell id="KFrMSVpAkXBQNOpXP_fS-8" value="0" style="whiteSpace=wrap;html=1;aspect=fixed;fillColor=#dae8fc;strokeColor=#6c8ebf;" vertex="1" parent="1">
          <mxGeometry x="540" y="620" width="20" height="20" as="geometry" />
        </mxCell>
      </root>
    </mxGraphModel>
  </diagram>
</mxfile>
